<svg width="66" height="66" viewBox="0 0 66 66" fill="none" xmlns="http://www.w3.org/2000/svg">
<g filter="url(#filter0_d_1210_1390)">
<rect x="3" width="60" height="60" rx="30" fill="#EE7326" shape-rendering="crispEdges"/>
<path d="M42.2946 33.093C41.1982 37.3349 37.4474 40.4574 32.9464 40.4574C27.6375 40.4574 23.3096 36.0388 23.3096 30.6186C23.3096 25.0806 28.0414 20.1907 34.1582 20.8388L42.3523 14.9473C29.8303 7.58298 15 16.4202 15 30.6186C15 40.752 23.0787 49 33.0041 49C44.0835 49 52.8547 38.6899 50.6619 27.1426L42.2946 33.093Z" fill="white"/>
<path d="M32.9464 28.5566C32.9464 26.9659 33.6966 25.1984 34.9661 24.0791C39.2363 20.1907 43.5642 18.2465 47.8344 14.5938C49.1039 13.5922 49.9695 12.7085 50.9504 11V19.8372C50.9504 21.4279 50.2003 23.1953 48.9308 24.3147C44.6606 28.2031 40.3327 30.1473 36.0625 33.8C34.793 34.8015 33.9274 35.6853 32.9464 37.3938V28.5566Z" fill="white"/>
</g>
<defs>
<filter id="filter0_d_1210_1390" x="0" y="0" width="66" height="66" filterUnits="userSpaceOnUse" color-interpolation-filters="sRGB">
<feFlood flood-opacity="0" result="BackgroundImageFix"/>
<feColorMatrix in="SourceAlpha" type="matrix" values="0 0 0 0 0 0 0 0 0 0 0 0 0 0 0 0 0 0 127 0" result="hardAlpha"/>
<feOffset dy="3"/>
<feGaussianBlur stdDeviation="1.5"/>
<feComposite in2="hardAlpha" operator="out"/>
<feColorMatrix type="matrix" values="0 0 0 0 0 0 0 0 0 0 0 0 0 0 0 0 0 0 0.25 0"/>
<feBlend mode="normal" in2="BackgroundImageFix" result="effect1_dropShadow_1210_1390"/>
<feBlend mode="normal" in="SourceGraphic" in2="effect1_dropShadow_1210_1390" result="shape"/>
</filter>
</defs>
</svg>
