<svg width="383" height="325" viewBox="0 0 383 325" fill="none" xmlns="http://www.w3.org/2000/svg">
<path d="M50.7408 40.2228C48.7026 47.9456 41.7298 53.6304 33.3624 53.6304C23.4931 53.6304 15.4475 45.5858 15.4475 35.7179C15.4475 25.6354 24.244 16.7327 35.6151 17.9126L50.8481 7.18653C27.5695 -6.22105 0 9.86805 0 35.7179C0 54.1667 15.0184 69.1832 33.4697 69.1832C54.0663 69.1832 70.372 50.4125 66.2956 29.3895L50.7408 40.2228Z" fill="url(#paint0_linear_1210_757)" fill-opacity="0.5"/>
<path d="M33.3625 31.9637C33.3625 29.0676 34.757 25.8498 37.1171 23.8119C45.0554 16.7327 53.101 13.1931 61.0393 6.5429C63.3993 4.71947 65.0084 3.11056 66.8321 0V16.0891C66.8321 18.9851 65.4375 22.203 63.0775 24.2409C55.1392 31.3201 47.0936 34.8597 39.1553 41.5099C36.7952 43.3333 35.1861 44.9422 33.3625 48.0528V31.9637Z" fill="url(#paint1_linear_1210_757)" fill-opacity="0.5"/>
<path d="M50.7408 125.495C48.7026 133.218 41.7298 138.903 33.3624 138.903C23.4931 138.903 15.4475 130.858 15.4475 120.99C15.4475 110.908 24.244 102.005 35.6151 103.185L50.8481 92.4588C27.5695 79.0512 0 95.1403 0 120.99C0 139.439 15.0184 154.455 33.4697 154.455C54.0663 154.455 70.372 135.685 66.2956 114.662L50.7408 125.495Z" fill="url(#paint2_linear_1210_757)" fill-opacity="0.5"/>
<path d="M33.3625 117.236C33.3625 114.34 34.757 111.122 37.1171 109.084C45.0554 102.005 53.101 98.4653 61.0393 91.8152C63.3993 89.9918 65.0084 88.3828 66.8321 85.2723V101.361C66.8321 104.257 65.4375 107.475 63.0775 109.513C55.1392 116.592 47.0936 120.132 39.1553 126.782C36.7952 128.606 35.1861 130.215 33.3625 133.325V117.236Z" fill="url(#paint3_linear_1210_757)" fill-opacity="0.5"/>
<path d="M50.7408 210.767C48.7026 218.49 41.7298 224.175 33.3624 224.175C23.4931 224.175 15.4475 216.13 15.4475 206.262C15.4475 196.18 24.244 187.277 35.6151 188.457L50.8481 177.731C27.5695 164.324 0 180.413 0 206.262C0 224.711 15.0184 239.728 33.4697 239.728C54.0663 239.728 70.372 220.957 66.2956 199.934L50.7408 210.767Z" fill="url(#paint4_linear_1210_757)" fill-opacity="0.5"/>
<path d="M33.3625 202.508C33.3625 199.612 34.757 196.394 37.1171 194.356C45.0554 187.277 53.101 183.738 61.0393 177.087C63.3993 175.264 65.0084 173.655 66.8321 170.545V186.634C66.8321 189.53 65.4375 192.748 63.0775 194.785C55.1392 201.865 47.0936 205.404 39.1553 212.054C36.7952 213.878 35.1861 215.487 33.3625 218.597V202.508Z" fill="url(#paint5_linear_1210_757)" fill-opacity="0.5"/>
<path d="M50.7408 296.04C48.7026 303.762 41.7298 309.447 33.3624 309.447C23.4931 309.447 15.4475 301.403 15.4475 291.535C15.4475 281.452 24.244 272.55 35.6151 273.729L50.8481 263.003C27.5695 249.596 0 265.685 0 291.535C0 309.984 15.0184 325 33.4697 325C54.0663 325 70.372 306.229 66.2956 285.206L50.7408 296.04Z" fill="url(#paint6_linear_1210_757)" fill-opacity="0.5"/>
<path d="M33.3625 287.781C33.3625 284.884 34.757 281.667 37.1171 279.629C45.0554 272.55 53.101 269.01 61.0393 262.36C63.3993 260.536 65.0084 258.927 66.8321 255.817V271.906C66.8321 274.802 65.4375 278.02 63.0775 280.058C55.1392 287.137 47.0936 290.677 39.1553 297.327C36.7952 299.15 35.1861 300.759 33.3625 303.87V287.781Z" fill="url(#paint7_linear_1210_757)" fill-opacity="0.5"/>
<path d="M129.76 40.2228C127.722 47.9456 120.749 53.6304 112.381 53.6304C102.512 53.6304 94.4665 45.5858 94.4665 35.7179C94.4665 25.6354 103.263 16.7327 114.634 17.9126L129.867 7.18653C106.588 -6.22105 79.0189 9.86805 79.0189 35.7179C79.0189 54.1667 94.0374 69.1832 112.489 69.1832C133.085 69.1832 149.391 50.4125 145.315 29.3895L129.76 40.2228Z" fill="url(#paint8_linear_1210_757)" fill-opacity="0.5"/>
<path d="M112.381 31.9637C112.381 29.0676 113.776 25.8498 116.136 23.8119C124.074 16.7327 132.12 13.1931 140.058 6.5429C142.418 4.71947 144.027 3.11056 145.851 0V16.0891C145.851 18.9851 144.456 22.203 142.096 24.2409C134.158 31.3201 126.113 34.8597 118.174 41.5099C115.814 43.3333 114.205 44.9422 112.381 48.0528V31.9637Z" fill="url(#paint9_linear_1210_757)" fill-opacity="0.5"/>
<path d="M129.76 125.495C127.722 133.218 120.749 138.903 112.381 138.903C102.512 138.903 94.4665 130.858 94.4665 120.99C94.4665 110.908 103.263 102.005 114.634 103.185L129.867 92.4588C106.588 79.0512 79.0189 95.1403 79.0189 120.99C79.0189 139.439 94.0374 154.455 112.489 154.455C133.085 154.455 149.391 135.685 145.315 114.662L129.76 125.495Z" fill="url(#paint10_linear_1210_757)" fill-opacity="0.5"/>
<path d="M112.381 117.236C112.381 114.34 113.776 111.122 116.136 109.084C124.074 102.005 132.12 98.4653 140.058 91.8152C142.418 89.9918 144.027 88.3828 145.851 85.2723V101.361C145.851 104.257 144.456 107.475 142.096 109.513C134.158 116.592 126.113 120.132 118.174 126.782C115.814 128.606 114.205 130.215 112.381 133.325V117.236Z" fill="url(#paint11_linear_1210_757)" fill-opacity="0.5"/>
<path d="M129.76 210.767C127.722 218.49 120.749 224.175 112.381 224.175C102.512 224.175 94.4665 216.13 94.4665 206.262C94.4665 196.18 103.263 187.277 114.634 188.457L129.867 177.731C106.588 164.324 79.0189 180.413 79.0189 206.262C79.0189 224.711 94.0374 239.728 112.489 239.728C133.085 239.728 149.391 220.957 145.315 199.934L129.76 210.767Z" fill="url(#paint12_linear_1210_757)" fill-opacity="0.5"/>
<path d="M112.381 202.508C112.381 199.612 113.776 196.394 116.136 194.356C124.074 187.277 132.12 183.738 140.058 177.087C142.418 175.264 144.027 173.655 145.851 170.545V186.634C145.851 189.53 144.456 192.748 142.096 194.785C134.158 201.865 126.113 205.404 118.174 212.054C115.814 213.878 114.205 215.487 112.381 218.597V202.508Z" fill="url(#paint13_linear_1210_757)" fill-opacity="0.5"/>
<path d="M129.76 296.04C127.722 303.762 120.749 309.447 112.381 309.447C102.512 309.447 94.4665 301.403 94.4665 291.535C94.4665 281.452 103.263 272.55 114.634 273.729L129.867 263.003C106.588 249.596 79.0189 265.685 79.0189 291.535C79.0189 309.984 94.0374 325 112.489 325C133.085 325 149.391 306.229 145.315 285.206L129.76 296.04Z" fill="url(#paint14_linear_1210_757)" fill-opacity="0.5"/>
<path d="M112.381 287.781C112.381 284.884 113.776 281.667 116.136 279.629C124.074 272.55 132.12 269.01 140.058 262.36C142.418 260.536 144.027 258.927 145.851 255.817V271.906C145.851 274.802 144.456 278.02 142.096 280.058C134.158 287.137 126.113 290.677 118.174 297.327C115.814 299.15 114.205 300.759 112.381 303.87V287.781Z" fill="url(#paint15_linear_1210_757)" fill-opacity="0.5"/>
<path d="M208.779 40.2228C206.74 47.9456 199.768 53.6304 191.4 53.6304C181.531 53.6304 173.485 45.5858 173.485 35.7179C173.485 25.6354 182.282 16.7327 193.653 17.9126L208.886 7.18653C185.607 -6.22105 158.038 9.86805 158.038 35.7179C158.038 54.1667 173.056 69.1832 191.508 69.1832C212.104 69.1832 228.41 50.4125 224.333 29.3895L208.779 40.2228Z" fill="url(#paint16_linear_1210_757)" fill-opacity="0.5"/>
<path d="M191.4 31.9637C191.4 29.0676 192.795 25.8498 195.155 23.8119C203.093 16.7327 211.139 13.1931 219.077 6.5429C221.437 4.71947 223.046 3.11056 224.87 0V16.0891C224.87 18.9851 223.475 22.203 221.115 24.2409C213.177 31.3201 205.131 34.8597 197.193 41.5099C194.833 43.3333 193.224 44.9422 191.4 48.0528V31.9637Z" fill="url(#paint17_linear_1210_757)" fill-opacity="0.5"/>
<path d="M208.779 125.495C206.74 133.218 199.768 138.903 191.4 138.903C181.531 138.903 173.485 130.858 173.485 120.99C173.485 110.908 182.282 102.005 193.653 103.185L208.886 92.4588C185.607 79.0512 158.038 95.1403 158.038 120.99C158.038 139.439 173.056 154.455 191.508 154.455C212.104 154.455 228.41 135.685 224.333 114.662L208.779 125.495Z" fill="url(#paint18_linear_1210_757)" fill-opacity="0.5"/>
<path d="M191.4 117.236C191.4 114.34 192.795 111.122 195.155 109.084C203.093 102.005 211.139 98.4653 219.077 91.8152C221.437 89.9918 223.046 88.3828 224.87 85.2723V101.361C224.87 104.257 223.475 107.475 221.115 109.513C213.177 116.592 205.131 120.132 197.193 126.782C194.833 128.606 193.224 130.215 191.4 133.325V117.236Z" fill="url(#paint19_linear_1210_757)" fill-opacity="0.5"/>
<path d="M208.779 210.767C206.74 218.49 199.768 224.175 191.4 224.175C181.531 224.175 173.485 216.13 173.485 206.262C173.485 196.18 182.282 187.277 193.653 188.457L208.886 177.731C185.607 164.324 158.038 180.413 158.038 206.262C158.038 224.711 173.056 239.728 191.508 239.728C212.104 239.728 228.41 220.957 224.333 199.934L208.779 210.767Z" fill="url(#paint20_linear_1210_757)" fill-opacity="0.5"/>
<path d="M191.4 202.508C191.4 199.612 192.795 196.394 195.155 194.356C203.093 187.277 211.139 183.738 219.077 177.087C221.437 175.264 223.046 173.655 224.87 170.545V186.634C224.87 189.53 223.475 192.748 221.115 194.785C213.177 201.865 205.131 205.404 197.193 212.054C194.833 213.878 193.224 215.487 191.4 218.597V202.508Z" fill="url(#paint21_linear_1210_757)" fill-opacity="0.5"/>
<path d="M208.779 296.04C206.74 303.762 199.768 309.447 191.4 309.447C181.531 309.447 173.485 301.403 173.485 291.535C173.485 281.452 182.282 272.55 193.653 273.729L208.886 263.003C185.607 249.596 158.038 265.685 158.038 291.535C158.038 309.984 173.056 325 191.508 325C212.104 325 228.41 306.229 224.333 285.206L208.779 296.04Z" fill="url(#paint22_linear_1210_757)" fill-opacity="0.5"/>
<path d="M191.4 287.781C191.4 284.884 192.795 281.667 195.155 279.629C203.093 272.55 211.139 269.01 219.077 262.36C221.437 260.536 223.046 258.927 224.87 255.817V271.906C224.87 274.802 223.475 278.02 221.115 280.058C213.177 287.137 205.131 290.677 197.193 297.327C194.833 299.15 193.224 300.759 191.4 303.87V287.781Z" fill="url(#paint23_linear_1210_757)" fill-opacity="0.5"/>
<path d="M287.798 40.2228C285.759 47.9456 278.787 53.6304 270.419 53.6304C260.55 53.6304 252.504 45.5858 252.504 35.7179C252.504 25.6354 261.301 16.7327 272.672 17.9126L287.905 7.18653C264.626 -6.22105 237.057 9.86805 237.057 35.7179C237.057 54.1667 252.075 69.1832 270.526 69.1832C291.123 69.1832 307.429 50.4125 303.352 29.3895L287.798 40.2228Z" fill="url(#paint24_linear_1210_757)" fill-opacity="0.5"/>
<path d="M270.419 31.9637C270.419 29.0676 271.814 25.8498 274.174 23.8119C282.112 16.7327 290.158 13.1931 298.096 6.5429C300.456 4.71947 302.065 3.11056 303.889 0V16.0891C303.889 18.9851 302.494 22.203 300.134 24.2409C292.196 31.3201 284.15 34.8597 276.212 41.5099C273.852 43.3333 272.243 44.9422 270.419 48.0528V31.9637Z" fill="url(#paint25_linear_1210_757)" fill-opacity="0.5"/>
<path d="M287.798 125.495C285.759 133.218 278.787 138.903 270.419 138.903C260.55 138.903 252.504 130.858 252.504 120.99C252.504 110.908 261.301 102.005 272.672 103.185L287.905 92.4588C264.626 79.0512 237.057 95.1403 237.057 120.99C237.057 139.439 252.075 154.455 270.526 154.455C291.123 154.455 307.429 135.685 303.352 114.662L287.798 125.495Z" fill="url(#paint26_linear_1210_757)" fill-opacity="0.5"/>
<path d="M270.419 117.236C270.419 114.34 271.814 111.122 274.174 109.084C282.112 102.005 290.158 98.4653 298.096 91.8152C300.456 89.9918 302.065 88.3828 303.889 85.2723V101.361C303.889 104.257 302.494 107.475 300.134 109.513C292.196 116.592 284.15 120.132 276.212 126.782C273.852 128.606 272.243 130.215 270.419 133.325V117.236Z" fill="url(#paint27_linear_1210_757)" fill-opacity="0.5"/>
<path d="M287.798 210.767C285.759 218.49 278.787 224.175 270.419 224.175C260.55 224.175 252.504 216.13 252.504 206.262C252.504 196.18 261.301 187.277 272.672 188.457L287.905 177.731C264.626 164.324 237.057 180.413 237.057 206.262C237.057 224.711 252.075 239.728 270.526 239.728C291.123 239.728 307.429 220.957 303.352 199.934L287.798 210.767Z" fill="url(#paint28_linear_1210_757)" fill-opacity="0.5"/>
<path d="M270.419 202.508C270.419 199.612 271.814 196.394 274.174 194.356C282.112 187.277 290.158 183.738 298.096 177.087C300.456 175.264 302.065 173.655 303.889 170.545V186.634C303.889 189.53 302.494 192.748 300.134 194.785C292.196 201.865 284.15 205.404 276.212 212.054C273.852 213.878 272.243 215.487 270.419 218.597V202.508Z" fill="url(#paint29_linear_1210_757)" fill-opacity="0.5"/>
<path d="M287.798 296.04C285.759 303.762 278.787 309.447 270.419 309.447C260.55 309.447 252.504 301.403 252.504 291.535C252.504 281.452 261.301 272.55 272.672 273.729L287.905 263.003C264.626 249.596 237.057 265.685 237.057 291.535C237.057 309.984 252.075 325 270.526 325C291.123 325 307.429 306.229 303.352 285.206L287.798 296.04Z" fill="url(#paint30_linear_1210_757)" fill-opacity="0.5"/>
<path d="M270.419 287.781C270.419 284.884 271.814 281.667 274.174 279.629C282.112 272.55 290.158 269.01 298.096 262.36C300.456 260.536 302.065 258.927 303.889 255.817V271.906C303.889 274.802 302.494 278.02 300.134 280.058C292.196 287.137 284.15 290.677 276.212 297.327C273.852 299.15 272.243 300.759 270.419 303.87V287.781Z" fill="url(#paint31_linear_1210_757)" fill-opacity="0.5"/>
<path d="M366.817 40.2228C364.778 47.9456 357.806 53.6304 349.438 53.6304C339.569 53.6304 331.523 45.5858 331.523 35.7179C331.523 25.6354 340.32 16.7327 351.691 17.9126L366.924 7.18653C343.645 -6.22105 316.076 9.86805 316.076 35.7179C316.076 54.1667 331.094 69.1832 349.545 69.1832C370.142 69.1832 386.448 50.4125 382.371 29.3895L366.817 40.2228Z" fill="url(#paint32_linear_1210_757)" fill-opacity="0.5"/>
<path d="M349.438 31.9637C349.438 29.0676 350.833 25.8498 353.193 23.8119C361.131 16.7327 369.177 13.1931 377.115 6.5429C379.475 4.71947 381.084 3.11056 382.908 0V16.0891C382.908 18.9851 381.513 22.203 379.153 24.2409C371.215 31.3201 363.169 34.8597 355.231 41.5099C352.871 43.3333 351.262 44.9422 349.438 48.0528V31.9637Z" fill="url(#paint33_linear_1210_757)" fill-opacity="0.5"/>
<path d="M366.817 125.495C364.778 133.218 357.806 138.903 349.438 138.903C339.569 138.903 331.523 130.858 331.523 120.99C331.523 110.908 340.32 102.005 351.691 103.185L366.924 92.4588C343.645 79.0512 316.076 95.1403 316.076 120.99C316.076 139.439 331.094 154.455 349.545 154.455C370.142 154.455 386.448 135.685 382.371 114.662L366.817 125.495Z" fill="url(#paint34_linear_1210_757)" fill-opacity="0.5"/>
<path d="M349.438 117.236C349.438 114.34 350.833 111.122 353.193 109.084C361.131 102.005 369.177 98.4653 377.115 91.8152C379.475 89.9918 381.084 88.3828 382.908 85.2723V101.361C382.908 104.257 381.513 107.475 379.153 109.513C371.215 116.592 363.169 120.132 355.231 126.782C352.871 128.606 351.262 130.215 349.438 133.325V117.236Z" fill="url(#paint35_linear_1210_757)" fill-opacity="0.5"/>
<path d="M366.817 210.767C364.778 218.49 357.806 224.175 349.438 224.175C339.569 224.175 331.523 216.13 331.523 206.262C331.523 196.18 340.32 187.277 351.691 188.457L366.924 177.731C343.645 164.324 316.076 180.413 316.076 206.262C316.076 224.711 331.094 239.728 349.545 239.728C370.142 239.728 386.448 220.957 382.371 199.934L366.817 210.767Z" fill="url(#paint36_linear_1210_757)" fill-opacity="0.5"/>
<path d="M349.438 202.508C349.438 199.612 350.833 196.394 353.193 194.356C361.131 187.277 369.177 183.738 377.115 177.087C379.475 175.264 381.084 173.655 382.908 170.545V186.634C382.908 189.53 381.513 192.748 379.153 194.785C371.215 201.865 363.169 205.404 355.231 212.054C352.871 213.878 351.262 215.487 349.438 218.597V202.508Z" fill="url(#paint37_linear_1210_757)" fill-opacity="0.5"/>
<path d="M366.817 296.04C364.778 303.762 357.806 309.447 349.438 309.447C339.569 309.447 331.523 301.403 331.523 291.535C331.523 281.452 340.32 272.55 351.691 273.729L366.924 263.003C343.645 249.596 316.076 265.685 316.076 291.535C316.076 309.984 331.094 325 349.545 325C370.142 325 386.448 306.229 382.371 285.206L366.817 296.04Z" fill="url(#paint38_linear_1210_757)" fill-opacity="0.5"/>
<path d="M349.438 287.781C349.438 284.884 350.833 281.667 353.193 279.629C361.131 272.55 369.177 269.01 377.115 262.36C379.475 260.536 381.084 258.927 382.908 255.817V271.906C382.908 274.802 381.513 278.02 379.153 280.058C371.215 287.137 363.169 290.677 355.231 297.327C352.871 299.15 351.262 300.759 349.438 303.87V287.781Z" fill="url(#paint39_linear_1210_757)" fill-opacity="0.5"/>
<defs>
<linearGradient id="paint0_linear_1210_757" x1="191.5" y1="84" x2="191.5" y2="325" gradientUnits="userSpaceOnUse">
<stop stop-color="#484848" stop-opacity="0"/>
<stop offset="1" stop-color="#545454"/>
</linearGradient>
<linearGradient id="paint1_linear_1210_757" x1="191.5" y1="84" x2="191.5" y2="325" gradientUnits="userSpaceOnUse">
<stop stop-color="#484848" stop-opacity="0"/>
<stop offset="1" stop-color="#545454"/>
</linearGradient>
<linearGradient id="paint2_linear_1210_757" x1="191.5" y1="84" x2="191.5" y2="325" gradientUnits="userSpaceOnUse">
<stop stop-color="#484848" stop-opacity="0"/>
<stop offset="1" stop-color="#545454"/>
</linearGradient>
<linearGradient id="paint3_linear_1210_757" x1="191.5" y1="84" x2="191.5" y2="325" gradientUnits="userSpaceOnUse">
<stop stop-color="#484848" stop-opacity="0"/>
<stop offset="1" stop-color="#545454"/>
</linearGradient>
<linearGradient id="paint4_linear_1210_757" x1="191.5" y1="84" x2="191.5" y2="325" gradientUnits="userSpaceOnUse">
<stop stop-color="#484848" stop-opacity="0"/>
<stop offset="1" stop-color="#545454"/>
</linearGradient>
<linearGradient id="paint5_linear_1210_757" x1="191.5" y1="84" x2="191.5" y2="325" gradientUnits="userSpaceOnUse">
<stop stop-color="#484848" stop-opacity="0"/>
<stop offset="1" stop-color="#545454"/>
</linearGradient>
<linearGradient id="paint6_linear_1210_757" x1="191.5" y1="84" x2="191.5" y2="325" gradientUnits="userSpaceOnUse">
<stop stop-color="#484848" stop-opacity="0"/>
<stop offset="1" stop-color="#545454"/>
</linearGradient>
<linearGradient id="paint7_linear_1210_757" x1="191.5" y1="84" x2="191.5" y2="325" gradientUnits="userSpaceOnUse">
<stop stop-color="#484848" stop-opacity="0"/>
<stop offset="1" stop-color="#545454"/>
</linearGradient>
<linearGradient id="paint8_linear_1210_757" x1="191.5" y1="84" x2="191.5" y2="325" gradientUnits="userSpaceOnUse">
<stop stop-color="#484848" stop-opacity="0"/>
<stop offset="1" stop-color="#545454"/>
</linearGradient>
<linearGradient id="paint9_linear_1210_757" x1="191.5" y1="84" x2="191.5" y2="325" gradientUnits="userSpaceOnUse">
<stop stop-color="#484848" stop-opacity="0"/>
<stop offset="1" stop-color="#545454"/>
</linearGradient>
<linearGradient id="paint10_linear_1210_757" x1="191.5" y1="84" x2="191.5" y2="325" gradientUnits="userSpaceOnUse">
<stop stop-color="#484848" stop-opacity="0"/>
<stop offset="1" stop-color="#545454"/>
</linearGradient>
<linearGradient id="paint11_linear_1210_757" x1="191.5" y1="84" x2="191.5" y2="325" gradientUnits="userSpaceOnUse">
<stop stop-color="#484848" stop-opacity="0"/>
<stop offset="1" stop-color="#545454"/>
</linearGradient>
<linearGradient id="paint12_linear_1210_757" x1="191.5" y1="84" x2="191.5" y2="325" gradientUnits="userSpaceOnUse">
<stop stop-color="#484848" stop-opacity="0"/>
<stop offset="1" stop-color="#545454"/>
</linearGradient>
<linearGradient id="paint13_linear_1210_757" x1="191.5" y1="84" x2="191.5" y2="325" gradientUnits="userSpaceOnUse">
<stop stop-color="#484848" stop-opacity="0"/>
<stop offset="1" stop-color="#545454"/>
</linearGradient>
<linearGradient id="paint14_linear_1210_757" x1="191.5" y1="84" x2="191.5" y2="325" gradientUnits="userSpaceOnUse">
<stop stop-color="#484848" stop-opacity="0"/>
<stop offset="1" stop-color="#545454"/>
</linearGradient>
<linearGradient id="paint15_linear_1210_757" x1="191.5" y1="84" x2="191.5" y2="325" gradientUnits="userSpaceOnUse">
<stop stop-color="#484848" stop-opacity="0"/>
<stop offset="1" stop-color="#545454"/>
</linearGradient>
<linearGradient id="paint16_linear_1210_757" x1="191.5" y1="84" x2="191.5" y2="325" gradientUnits="userSpaceOnUse">
<stop stop-color="#484848" stop-opacity="0"/>
<stop offset="1" stop-color="#545454"/>
</linearGradient>
<linearGradient id="paint17_linear_1210_757" x1="191.5" y1="84" x2="191.5" y2="325" gradientUnits="userSpaceOnUse">
<stop stop-color="#484848" stop-opacity="0"/>
<stop offset="1" stop-color="#545454"/>
</linearGradient>
<linearGradient id="paint18_linear_1210_757" x1="191.5" y1="84" x2="191.5" y2="325" gradientUnits="userSpaceOnUse">
<stop stop-color="#484848" stop-opacity="0"/>
<stop offset="1" stop-color="#545454"/>
</linearGradient>
<linearGradient id="paint19_linear_1210_757" x1="191.5" y1="84" x2="191.5" y2="325" gradientUnits="userSpaceOnUse">
<stop stop-color="#484848" stop-opacity="0"/>
<stop offset="1" stop-color="#545454"/>
</linearGradient>
<linearGradient id="paint20_linear_1210_757" x1="191.5" y1="84" x2="191.5" y2="325" gradientUnits="userSpaceOnUse">
<stop stop-color="#484848" stop-opacity="0"/>
<stop offset="1" stop-color="#545454"/>
</linearGradient>
<linearGradient id="paint21_linear_1210_757" x1="191.5" y1="84" x2="191.5" y2="325" gradientUnits="userSpaceOnUse">
<stop stop-color="#484848" stop-opacity="0"/>
<stop offset="1" stop-color="#545454"/>
</linearGradient>
<linearGradient id="paint22_linear_1210_757" x1="191.5" y1="84" x2="191.5" y2="325" gradientUnits="userSpaceOnUse">
<stop stop-color="#484848" stop-opacity="0"/>
<stop offset="1" stop-color="#545454"/>
</linearGradient>
<linearGradient id="paint23_linear_1210_757" x1="191.5" y1="84" x2="191.5" y2="325" gradientUnits="userSpaceOnUse">
<stop stop-color="#484848" stop-opacity="0"/>
<stop offset="1" stop-color="#545454"/>
</linearGradient>
<linearGradient id="paint24_linear_1210_757" x1="191.5" y1="84" x2="191.5" y2="325" gradientUnits="userSpaceOnUse">
<stop stop-color="#484848" stop-opacity="0"/>
<stop offset="1" stop-color="#545454"/>
</linearGradient>
<linearGradient id="paint25_linear_1210_757" x1="191.5" y1="84" x2="191.5" y2="325" gradientUnits="userSpaceOnUse">
<stop stop-color="#484848" stop-opacity="0"/>
<stop offset="1" stop-color="#545454"/>
</linearGradient>
<linearGradient id="paint26_linear_1210_757" x1="191.5" y1="84" x2="191.5" y2="325" gradientUnits="userSpaceOnUse">
<stop stop-color="#484848" stop-opacity="0"/>
<stop offset="1" stop-color="#545454"/>
</linearGradient>
<linearGradient id="paint27_linear_1210_757" x1="191.5" y1="84" x2="191.5" y2="325" gradientUnits="userSpaceOnUse">
<stop stop-color="#484848" stop-opacity="0"/>
<stop offset="1" stop-color="#545454"/>
</linearGradient>
<linearGradient id="paint28_linear_1210_757" x1="191.5" y1="84" x2="191.5" y2="325" gradientUnits="userSpaceOnUse">
<stop stop-color="#484848" stop-opacity="0"/>
<stop offset="1" stop-color="#545454"/>
</linearGradient>
<linearGradient id="paint29_linear_1210_757" x1="191.5" y1="84" x2="191.5" y2="325" gradientUnits="userSpaceOnUse">
<stop stop-color="#484848" stop-opacity="0"/>
<stop offset="1" stop-color="#545454"/>
</linearGradient>
<linearGradient id="paint30_linear_1210_757" x1="191.5" y1="84" x2="191.5" y2="325" gradientUnits="userSpaceOnUse">
<stop stop-color="#484848" stop-opacity="0"/>
<stop offset="1" stop-color="#545454"/>
</linearGradient>
<linearGradient id="paint31_linear_1210_757" x1="191.5" y1="84" x2="191.5" y2="325" gradientUnits="userSpaceOnUse">
<stop stop-color="#484848" stop-opacity="0"/>
<stop offset="1" stop-color="#545454"/>
</linearGradient>
<linearGradient id="paint32_linear_1210_757" x1="191.5" y1="84" x2="191.5" y2="325" gradientUnits="userSpaceOnUse">
<stop stop-color="#484848" stop-opacity="0"/>
<stop offset="1" stop-color="#545454"/>
</linearGradient>
<linearGradient id="paint33_linear_1210_757" x1="191.5" y1="84" x2="191.5" y2="325" gradientUnits="userSpaceOnUse">
<stop stop-color="#484848" stop-opacity="0"/>
<stop offset="1" stop-color="#545454"/>
</linearGradient>
<linearGradient id="paint34_linear_1210_757" x1="191.5" y1="84" x2="191.5" y2="325" gradientUnits="userSpaceOnUse">
<stop stop-color="#484848" stop-opacity="0"/>
<stop offset="1" stop-color="#545454"/>
</linearGradient>
<linearGradient id="paint35_linear_1210_757" x1="191.5" y1="84" x2="191.5" y2="325" gradientUnits="userSpaceOnUse">
<stop stop-color="#484848" stop-opacity="0"/>
<stop offset="1" stop-color="#545454"/>
</linearGradient>
<linearGradient id="paint36_linear_1210_757" x1="191.5" y1="84" x2="191.5" y2="325" gradientUnits="userSpaceOnUse">
<stop stop-color="#484848" stop-opacity="0"/>
<stop offset="1" stop-color="#545454"/>
</linearGradient>
<linearGradient id="paint37_linear_1210_757" x1="191.5" y1="84" x2="191.5" y2="325" gradientUnits="userSpaceOnUse">
<stop stop-color="#484848" stop-opacity="0"/>
<stop offset="1" stop-color="#545454"/>
</linearGradient>
<linearGradient id="paint38_linear_1210_757" x1="191.5" y1="84" x2="191.5" y2="325" gradientUnits="userSpaceOnUse">
<stop stop-color="#484848" stop-opacity="0"/>
<stop offset="1" stop-color="#545454"/>
</linearGradient>
<linearGradient id="paint39_linear_1210_757" x1="191.5" y1="84" x2="191.5" y2="325" gradientUnits="userSpaceOnUse">
<stop stop-color="#484848" stop-opacity="0"/>
<stop offset="1" stop-color="#545454"/>
</linearGradient>
</defs>
</svg>
