<svg width="24" height="25" viewBox="0 0 24 25" fill="none" xmlns="http://www.w3.org/2000/svg">
<rect y="0.772949" width="24" height="24" rx="12" fill="#666666"/>
<path d="M13.1571 14.1571C12.2143 15.13 12.1457 16.3429 12.0643 19C14.5414 19 16.2514 18.9914 17.1343 18.1343C17.9914 17.2514 18 15.46 18 13.0643C15.3429 13.15 14.13 13.2143 13.1571 14.1571ZM6 13.0643C6 15.46 6.00857 17.2514 6.86571 18.1343C7.74857 18.9914 9.45857 19 11.9357 19C11.85 16.3429 11.7857 15.13 10.8429 14.1571C9.87 13.2143 8.65714 13.1457 6 13.0643ZM11.9357 7C9.46286 7 7.74857 7.00857 6.86571 7.86571C6.00857 8.74857 6 10.54 6 12.9357C8.65714 12.85 9.87 12.7857 10.8429 11.8429C11.7857 10.87 11.8543 9.65714 11.9357 7ZM13.1571 11.8429C12.2143 10.87 12.1457 9.65714 12.0643 7C14.5414 7 16.2514 7.00857 17.1343 7.86571C17.9914 8.74857 18 10.54 18 12.9357C15.3429 12.85 14.13 12.7857 13.1571 11.8429Z" fill="#343434"/>
<path d="M18 13.0643V12.9357C15.3429 12.85 14.13 12.7857 13.1571 11.8429C12.2143 10.87 12.1457 9.65714 12.0643 7H11.9357C11.85 9.65714 11.7857 10.87 10.8429 11.8429C9.87 12.7857 8.65714 12.8543 6 12.9357V13.0643C8.65714 13.15 9.87 13.2143 10.8429 14.1571C11.7857 15.13 11.8543 16.3429 11.9357 19H12.0643C12.15 16.3429 12.2143 15.13 13.1571 14.1571C14.13 13.2143 15.3429 13.1457 18 13.0643Z" fill="#666666"/>
</svg>
