<svg width="126" height="31" viewBox="0 0 126 31" fill="none" xmlns="http://www.w3.org/2000/svg">
<path d="M125.5 20.2427H121.475V8.40559H118.019C118.019 11.5779 117.83 14.0401 117.403 15.792C116.977 17.5439 116.551 18.6329 115.794 19.2958C115.083 20.006 114.278 20.1954 112.905 20.1954C112.384 20.1954 111.295 20.1954 111.295 20.1954V16.7863H111.579C112.526 16.7863 112.858 16.5495 113.189 15.9814C113.521 15.4605 113.758 14.5136 113.9 13.2351C114.042 11.9567 114.136 9.82604 114.136 7.60066V4.75974H125.5V20.2427Z" fill="white"/>
<path d="M54.7139 4.80708H58.3124V14.0874L58.3597 14.1348L63.9942 4.80708H67.6874V20.2427H64.0416V11.2465H63.9942L58.3124 20.2427H54.7139V4.80708Z" fill="white"/>
<path d="M78.8617 8.26353H74.2216V20.2427H70.4337V4.80708H78.8617V8.26353Z" fill="white"/>
<path d="M93.7765 20.2427H89.8466V14.0874H84.7803V20.2427H80.8504V4.80708H84.7803V10.5836H89.8466V4.80708H93.7765V20.2427Z" fill="white"/>
<path d="M110.443 20.2427H106.182L105.424 18.0173H100.074L99.2216 20.2427H95.0076L101.21 4.80708H104.335L110.443 20.2427ZM104.335 14.8923L102.773 9.63664H102.725L101.163 14.8923H104.335Z" fill="white"/>
<path d="M48.5585 14.3715C47.8956 15.7919 46.4278 16.7863 44.7233 16.7863C42.3558 16.7863 40.4619 14.8923 40.4619 12.5249C40.4619 10.1575 42.3558 8.26352 44.7233 8.26352C46.4278 8.26352 47.8483 9.25783 48.5585 10.6783H52.4411C51.5888 7.22184 48.4638 4.61768 44.7706 4.61768C40.4146 4.61768 36.8634 8.16882 36.8634 12.5249C36.8634 16.881 40.4146 20.4321 44.7706 20.4321C48.5112 20.4321 51.6362 17.8279 52.4411 14.3715H48.5585Z" fill="white"/>
<path d="M22.8959 17.9857C21.9962 21.3948 18.9186 23.9043 15.2254 23.9043C10.8693 23.9043 7.31819 20.3531 7.31819 15.9971C7.31819 11.5463 11.2008 7.61638 16.2197 8.13722L22.9432 3.40236C12.6686 -2.51621 0.5 4.58608 0.5 15.9971C0.5 24.141 7.1288 30.7698 15.2728 30.7698C24.3637 30.7698 31.5606 22.4838 29.7614 13.2035L22.8959 17.9857Z" fill="white"/>
<path d="M15.2254 14.3399C15.2254 13.0614 15.841 11.641 16.8826 10.7414C20.3864 7.61636 23.9376 6.05385 27.4414 3.11824C28.483 2.31332 29.1933 1.60309 29.9982 0.22998V7.33226C29.9982 8.61067 29.3826 10.0311 28.341 10.9308C24.8372 14.0558 21.2861 15.6183 17.7823 18.5539C16.7406 19.3588 16.0304 20.069 15.2254 21.4421V14.3399Z" fill="white"/>
<path d="M39.1839 27.2499C38.6631 27.2499 38.2843 27.0132 38.2843 26.2082V24.8351C38.2843 24.0302 38.6631 23.7935 39.1839 23.7935C39.7048 23.7935 40.0836 24.0302 40.0836 24.8351V26.2082C40.0836 27.0132 39.7048 27.2499 39.1839 27.2499ZM39.468 24.8825C39.468 24.5037 39.326 24.409 39.1839 24.409C39.0419 24.409 38.8998 24.5037 38.8998 24.8825V26.2082C38.8998 26.587 38.9945 26.6817 39.1839 26.6817C39.326 26.6817 39.468 26.587 39.468 26.2082V24.8825Z" fill="white"/>
<path d="M43.919 24.4564V27.2499H43.3034V24.4564H42.7353V23.8882H44.5345V24.4564H43.919Z" fill="white"/>
<path d="M48.0382 27.2499C47.5174 27.2499 47.1386 27.0132 47.1386 26.2082V24.8351C47.1386 24.0302 47.5174 23.7935 48.0382 23.7935C48.559 23.7935 48.9378 24.0302 48.9378 24.8351V26.2082C48.9378 27.0132 48.5117 27.2499 48.0382 27.2499ZM48.3223 24.8825C48.3223 24.5037 48.1802 24.409 48.0382 24.409C47.8961 24.409 47.7541 24.5037 47.7541 24.8825V26.2082C47.7541 26.587 47.8488 26.6817 48.0382 26.6817C48.1802 26.6817 48.3223 26.587 48.3223 26.2082V24.8825Z" fill="white"/>
<path d="M52.8678 27.2499V24.4564H52.2996V27.2499H51.6841V23.8882H53.4833V27.2499H52.8678Z" fill="white"/>
<path d="M57.4605 27.2499V25.6874C57.4605 25.5927 57.5078 25.3086 57.5078 25.2139L56.7976 27.2025H56.2768V23.8408H56.8923V25.3559C56.8923 25.4506 56.8923 25.7821 56.8449 25.8768L57.5552 23.8881H58.076V27.2499H57.4605Z" fill="white"/>
<path d="M61.9586 24.4564V27.2499H61.3431V24.4564H60.7749V23.8882H62.5741V24.4564H61.9586Z" fill="white"/>
<path d="M65.1784 27.2499V23.8882H66.7409V24.4564H65.7939V25.2613H66.5989V25.8295H65.7939V26.6817H66.7409V27.2499H65.1784Z" fill="white"/>
<path d="M70.8601 27.2499V24.4564H70.434L70.3866 26.0189C70.3866 26.7764 70.1499 27.2499 69.487 27.2499H69.2976V26.6817C69.6764 26.6817 69.7237 26.303 69.7237 26.0189L69.7711 23.8882H71.4283V27.2499H70.8601Z" fill="white"/>
<path d="M75.169 27.2499H74.222V23.8882H74.8376V25.1192H75.169C75.7372 25.1192 76.0686 25.4033 76.0686 26.1136V26.2556C76.0686 26.9658 75.7372 27.2499 75.169 27.2499ZM75.4531 26.1136C75.4531 25.7821 75.3584 25.6874 75.1217 25.6874H74.8849V26.6817H75.1217C75.3584 26.6817 75.4531 26.5397 75.4531 26.2083V26.1136Z" fill="white"/>
<path d="M79.951 27.2499V25.8295H79.3829V27.2499H78.7673V23.8882H79.3829V25.2613H79.951V23.8882H80.5666V27.2499H79.951Z" fill="white"/>
<path d="M84.7332 27.2499L84.6385 26.7291H83.9756L83.881 27.2499H83.2654L84.023 23.8882H84.5912L85.3961 27.2499H84.7332ZM84.3544 25.356L84.3071 24.9772L84.2597 25.356C84.2597 25.356 84.1177 26.2083 84.0704 26.2083H84.5438L84.3544 25.356Z" fill="white"/>
<path d="M89.2315 27.2499V25.9715H89.0421L88.616 27.2499H87.9531L88.4739 25.8295C88.1898 25.7348 88.0478 25.4507 88.0478 24.9298V24.8352C88.0478 24.2196 88.3319 23.8882 88.9001 23.8882H89.8471V27.2499H89.2315ZM89.2315 24.409H88.9474C88.7107 24.409 88.616 24.5511 88.616 24.8352V24.9298C88.616 25.2139 88.7107 25.356 88.9474 25.356H89.2315V24.409Z" fill="white"/>
<path d="M96.6178 24.4564V27.2499H96.0023V24.4564H95.4341V23.8882H97.2333V24.4564H96.6178Z" fill="white"/>
<path d="M99.8374 27.2499V23.8882H101.4V24.4564H100.453V25.2613H101.258V25.8295H100.453V26.6817H101.4V27.2499H99.8374Z" fill="white"/>
<path d="M105.425 27.2499L105.093 26.3977L104.998 26.1136L104.904 26.3977L104.572 27.2499H103.957L104.667 25.498L104.004 23.8882H104.667L104.951 24.6458L105.046 24.8825L105.141 24.6458L105.425 23.8882H106.088L105.425 25.498L106.135 27.2499H105.425Z" fill="white"/>
<path d="M109.875 27.2499V25.8295H109.307V27.2499H108.692V23.8882H109.307V25.2613H109.875V23.8882H110.491V27.2499H109.875Z" fill="white"/>
<path d="M114.515 27.2499V25.6874C114.515 25.5927 114.563 25.3086 114.563 25.2139L113.853 27.2025H113.332V23.8408H113.947V25.3559C113.947 25.4506 113.947 25.7821 113.9 25.8768L114.61 23.8881H115.131V27.2499H114.515Z" fill="white"/>
<path d="M119.203 27.2499L118.682 25.8768L118.493 26.2083V27.2499H117.877V23.8882H118.493V25.2139L119.156 23.8882H119.819L119.156 25.1666L119.913 27.2499H119.203Z" fill="white"/>
<path d="M123.938 27.2499L123.843 26.7291H123.18L123.086 27.2499H122.423L123.18 23.8882H123.749L124.553 27.2499H123.938ZM123.512 25.356L123.464 24.9772L123.417 25.356C123.417 25.356 123.275 26.2083 123.228 26.2083H123.701L123.512 25.356Z" fill="white"/>
</svg>
