<svg width="216" height="53" viewBox="0 0 216 53" fill="none" xmlns="http://www.w3.org/2000/svg">
<path d="M216 32.5821H209.045V12.1275H203.072C203.072 17.6094 202.745 21.8639 202.009 24.8912C201.272 27.9184 200.536 29.8003 199.227 30.9457C198 32.173 196.609 32.5003 194.236 32.5003C193.336 32.5003 191.454 32.5003 191.454 32.5003V26.6094H191.945C193.582 26.6094 194.154 26.2003 194.727 25.2184C195.3 24.3184 195.709 22.6821 195.954 20.473C196.2 18.2639 196.363 14.5821 196.363 10.7366V5.82753H216V32.5821Z" fill="white"/>
<path d="M93.6815 5.90932H99.8997V21.9457L99.9816 22.0275L109.718 5.90932H116.1V32.5821H109.8V17.0366H109.718L99.8997 32.5821H93.6815V5.90932Z" fill="white"/>
<path d="M135.409 11.8821H127.391V32.5821H120.845V5.90932H135.409V11.8821Z" fill="white"/>
<path d="M161.182 32.5821H154.391V21.9457H145.636V32.5821H138.845V5.90932H145.636V15.8912H154.391V5.90932H161.182V32.5821Z" fill="white"/>
<path d="M189.982 32.5821H182.618L181.309 28.7366H172.063L170.591 32.5821H163.309L174.027 5.90932H179.427L189.982 32.5821ZM179.427 23.3366L176.727 14.2548H176.645L173.945 23.3366H179.427Z" fill="white"/>
<path d="M83.045 22.4366C81.8996 24.8911 79.3632 26.6093 76.4178 26.6093C72.3269 26.6093 69.0541 23.3366 69.0541 19.2457C69.0541 15.1548 72.3269 11.882 76.4178 11.882C79.3632 11.882 81.8178 13.6002 83.045 16.0547H89.7541C88.2814 10.082 82.8814 5.58203 76.4996 5.58203C68.9723 5.58203 62.8359 11.7184 62.8359 19.2457C62.8359 26.773 68.9723 32.9093 76.4996 32.9093C82.9632 32.9093 88.3632 28.4093 89.7541 22.4366H83.045Z" fill="white"/>
<path d="M38.7 30.6819C37.1454 36.5728 31.8273 40.9091 25.4455 40.9091C17.9182 40.9091 11.7818 34.7728 11.7818 27.2455C11.7818 19.5546 18.4909 12.7637 27.1636 13.6637L38.7818 5.48187C21.0273 -4.74541 0 7.52732 0 27.2455C0 41.3182 11.4546 52.7728 25.5273 52.7728C41.2364 52.7728 53.6727 38.4546 50.5636 22.4182L38.7 30.6819Z" fill="white"/>
<path d="M25.4455 24.3818C25.4455 22.1727 26.5092 19.7182 28.3092 18.1636C34.3637 12.7636 40.5001 10.0636 46.5546 4.99091C48.3546 3.6 49.5819 2.37273 50.9728 0V12.2727C50.9728 14.4818 49.9092 16.9364 48.1092 18.4909C42.0546 23.8909 35.9183 26.5909 29.8637 31.6636C28.0637 33.0546 26.8364 34.2818 25.4455 36.6546V24.3818Z" fill="white"/>
<path d="M66.8456 44.6905C65.9456 44.6905 65.291 44.2814 65.291 42.8905V40.5178C65.291 39.1269 65.9456 38.7178 66.8456 38.7178C67.7456 38.7178 68.4001 39.1269 68.4001 40.5178V42.8905C68.4001 44.2814 67.7456 44.6905 66.8456 44.6905ZM67.3365 40.5996C67.3365 39.945 67.091 39.7814 66.8456 39.7814C66.6001 39.7814 66.3547 39.945 66.3547 40.5996V42.8905C66.3547 43.5451 66.5183 43.7087 66.8456 43.7087C67.091 43.7087 67.3365 43.5451 67.3365 42.8905V40.5996Z" fill="white"/>
<path d="M75.0277 39.8633V44.6905H73.964V39.8633H72.9822V38.8815H76.0913V39.8633H75.0277Z" fill="white"/>
<path d="M82.1457 44.6905C81.2457 44.6905 80.5912 44.2814 80.5912 42.8905V40.5178C80.5912 39.1269 81.2457 38.7178 82.1457 38.7178C83.0457 38.7178 83.7003 39.1269 83.7003 40.5178V42.8905C83.7003 44.2814 82.9639 44.6905 82.1457 44.6905ZM82.6366 40.5996C82.6366 39.945 82.3912 39.7814 82.1457 39.7814C81.9003 39.7814 81.6548 39.945 81.6548 40.5996V42.8905C81.6548 43.5451 81.8184 43.7087 82.1457 43.7087C82.3912 43.7087 82.6366 43.5451 82.6366 42.8905V40.5996Z" fill="white"/>
<path d="M90.4913 44.6905V39.8633H89.5094V44.6905H88.4458V38.8815H91.5549V44.6905H90.4913Z" fill="white"/>
<path d="M98.4274 44.6905V41.9905C98.4274 41.8268 98.5092 41.3359 98.5092 41.1723L97.2819 44.6087H96.3819V38.7996H97.4456V41.4177C97.4456 41.5814 97.4456 42.1541 97.3638 42.3177L98.591 38.8814H99.491V44.6905H98.4274Z" fill="white"/>
<path d="M106.2 39.8633V44.6905H105.136V39.8633H104.155V38.8815H107.264V39.8633H106.2Z" fill="white"/>
<path d="M111.764 44.6905V38.8815H114.464V39.8633H112.828V41.2542H114.219V42.236H112.828V43.7087H114.464V44.6905H111.764Z" fill="white"/>
<path d="M121.582 44.6905V39.8633H120.846L120.764 42.5633C120.764 43.8724 120.355 44.6905 119.209 44.6905H118.882V43.7087C119.536 43.7087 119.618 43.0542 119.618 42.5633L119.7 38.8815H122.564V44.6905H121.582Z" fill="white"/>
<path d="M129.028 44.6905H127.391V38.8815H128.455V41.0087H129.028C130.01 41.0087 130.582 41.4996 130.582 42.7269V42.9724C130.582 44.1997 130.01 44.6905 129.028 44.6905ZM129.519 42.7269C129.519 42.1542 129.355 41.9906 128.946 41.9906H128.537V43.7087H128.946C129.355 43.7087 129.519 43.4633 129.519 42.8906V42.7269Z" fill="white"/>
<path d="M137.291 44.6905V42.236H136.309V44.6905H135.246V38.8815H136.309V41.2542H137.291V38.8815H138.355V44.6905H137.291Z" fill="white"/>
<path d="M145.555 44.6905L145.391 43.7906H144.246L144.082 44.6905H143.018L144.327 38.8815H145.309L146.7 44.6905H145.555ZM144.9 41.4178L144.818 40.7633L144.736 41.4178C144.736 41.4178 144.491 42.8906 144.409 42.8906H145.227L144.9 41.4178Z" fill="white"/>
<path d="M153.328 44.6905V42.4815H153L152.264 44.6905H151.119L152.019 42.236C151.528 42.0724 151.282 41.5815 151.282 40.6815V40.5178C151.282 39.4542 151.773 38.8815 152.755 38.8815H154.391V44.6905H153.328ZM153.328 39.7814H152.837C152.428 39.7814 152.264 40.0269 152.264 40.5178V40.6815C152.264 41.1724 152.428 41.4178 152.837 41.4178H153.328V39.7814Z" fill="white"/>
<path d="M166.091 39.8633V44.6905H165.028V39.8633H164.046V38.8815H167.155V39.8633H166.091Z" fill="white"/>
<path d="M171.655 44.6905V38.8815H174.355V39.8633H172.718V41.2542H174.109V42.236H172.718V43.7087H174.355V44.6905H171.655Z" fill="white"/>
<path d="M181.309 44.6905L180.737 43.2178L180.573 42.7269L180.409 43.2178L179.837 44.6905H178.773L180 41.6633L178.855 38.8815H180L180.491 40.1905L180.655 40.5996L180.818 40.1905L181.309 38.8815H182.455L181.309 41.6633L182.537 44.6905H181.309Z" fill="white"/>
<path d="M189 44.6905V42.236H188.018V44.6905H186.955V38.8815H188.018V41.2542H189V38.8815H190.064V44.6905H189Z" fill="white"/>
<path d="M197.018 44.6905V41.9905C197.018 41.8268 197.1 41.3359 197.1 41.1723L195.873 44.6087H194.973V38.7996H196.036V41.4177C196.036 41.5814 196.036 42.1541 195.955 42.3177L197.182 38.8814H198.082V44.6905H197.018Z" fill="white"/>
<path d="M205.118 44.6905L204.218 42.3178L203.891 42.8906V44.6905H202.827V38.8815H203.891V41.1724L205.037 38.8815H206.182L205.037 41.0905L206.346 44.6905H205.118Z" fill="white"/>
<path d="M213.3 44.6905L213.137 43.7906H211.991L211.828 44.6905H210.682L211.991 38.8815H212.973L214.364 44.6905H213.3ZM212.564 41.4178L212.482 40.7633L212.4 41.4178C212.4 41.4178 212.155 42.8906 212.073 42.8906H212.891L212.564 41.4178Z" fill="white"/>
</svg>
