<svg width="157" height="39" viewBox="0 0 157 39" fill="none" xmlns="http://www.w3.org/2000/svg">
<path d="M157 25.4571H151.945V10.5896H147.604C147.604 14.5741 147.366 17.6666 146.831 19.8669C146.295 22.0673 145.76 23.4351 144.809 24.2677C143.917 25.1597 142.906 25.3976 141.181 25.3976C140.527 25.3976 139.159 25.3976 139.159 25.3976V21.1158H139.516C140.705 21.1158 141.122 20.8184 141.538 20.1048C141.954 19.4506 142.252 18.2613 142.43 16.6556C142.608 15.0499 142.727 12.3737 142.727 9.57866V6.01047H157V25.4571Z" fill="white"/>
<path d="M68.0927 6.06992H72.6124V17.726L72.6719 17.7855L79.7488 6.06992H84.3874V25.4571H79.8083V14.1578H79.7488L72.6124 25.4571H68.0927V6.06992Z" fill="white"/>
<path d="M98.4224 10.4112H92.5944V25.4571H87.8368V6.06992H98.4224V10.4112Z" fill="white"/>
<path d="M117.155 25.4571H112.219V17.726H105.856V25.4571H100.92V6.06992H105.856V13.3252H112.219V6.06992H117.155V25.4571Z" fill="white"/>
<path d="M138.089 25.4571H132.736L131.785 22.662H125.065L123.994 25.4571H118.702L126.492 6.06992H130.417L138.089 25.4571ZM130.417 18.737L128.455 12.1358H128.395L126.433 18.737H130.417Z" fill="white"/>
<path d="M60.3615 18.0828C59.5289 19.8669 57.6854 21.1158 55.5445 21.1158C52.571 21.1158 50.1922 18.737 50.1922 15.7635C50.1922 12.79 52.571 10.4112 55.5445 10.4112C57.6854 10.4112 59.4695 11.6601 60.3615 13.4442H65.2381C64.1676 9.10286 60.2426 5.83203 55.6039 5.83203C50.1327 5.83203 45.6725 10.2923 45.6725 15.7635C45.6725 21.2347 50.1327 25.6949 55.6039 25.6949C60.3021 25.6949 64.2271 22.4241 65.2381 18.0828H60.3615Z" fill="white"/>
<path d="M28.1292 22.622C26.9993 26.9038 23.1337 30.0557 18.4951 30.0557C13.0239 30.0557 8.56364 25.5955 8.56364 20.1243C8.56364 14.5341 13.4402 9.59812 19.744 10.2523L28.1887 4.30531C15.2837 -3.12841 0 5.79206 0 20.1243C0 30.3531 8.32578 38.6788 18.5546 38.6788C29.9728 38.6788 39.0122 28.2716 36.7523 16.6155L28.1292 22.622Z" fill="white"/>
<path d="M18.4952 18.0428C18.4952 16.4371 19.2683 14.653 20.5766 13.5231C24.9774 9.59809 29.4376 7.63559 33.8384 3.94846C35.1467 2.93747 36.0387 2.04542 37.0497 0.320801V9.24127C37.0497 10.847 36.2766 12.631 34.9683 13.761C30.5675 17.686 26.1073 19.6485 21.7065 23.3356C20.3982 24.3466 19.5061 25.2386 18.4952 26.9633V18.0428Z" fill="white"/>
<path d="M48.5868 34.2578C47.9327 34.2578 47.4569 33.9605 47.4569 32.9495V31.2248C47.4569 30.2139 47.9327 29.9165 48.5868 29.9165C49.241 29.9165 49.7168 30.2139 49.7168 31.2248V32.9495C49.7168 33.9605 49.241 34.2578 48.5868 34.2578ZM48.9437 31.2843C48.9437 30.8085 48.7653 30.6896 48.5868 30.6896C48.4084 30.6896 48.23 30.8085 48.23 31.2843V32.9495C48.23 33.4252 48.349 33.5442 48.5868 33.5442C48.7653 33.5442 48.9437 33.4252 48.9437 32.9495V31.2843Z" fill="white"/>
<path d="M54.534 30.7491V34.2578H53.7609V30.7491H53.0473V30.0355H55.3071V30.7491H54.534Z" fill="white"/>
<path d="M59.7078 34.2578C59.0536 34.2578 58.5779 33.9605 58.5779 32.9495V31.2248C58.5779 30.2139 59.0536 29.9165 59.7078 29.9165C60.362 29.9165 60.8377 30.2139 60.8377 31.2248V32.9495C60.8377 33.9605 60.3025 34.2578 59.7078 34.2578ZM60.0646 31.2843C60.0646 30.8085 59.8862 30.6896 59.7078 30.6896C59.5294 30.6896 59.351 30.8085 59.351 31.2843V32.9495C59.351 33.4252 59.4699 33.5442 59.7078 33.5442C59.8862 33.5442 60.0646 33.4252 60.0646 32.9495V31.2843Z" fill="white"/>
<path d="M65.7738 34.2578V30.7491H65.0601V34.2578H64.287V30.0355H66.5469V34.2578H65.7738Z" fill="white"/>
<path d="M71.5422 34.2578V32.2953C71.5422 32.1763 71.6016 31.8195 71.6016 31.7006L70.7096 34.1983H70.0554V29.976H70.8285V31.879C70.8285 31.9979 70.8285 32.4142 70.7691 32.5332L71.6611 30.0354H72.3153V34.2578H71.5422Z" fill="white"/>
<path d="M77.1918 30.7491V34.2578H76.4187V30.7491H75.7051V30.0355H77.9649V30.7491H77.1918Z" fill="white"/>
<path d="M81.2359 34.2578V30.0355H83.1984V30.7491H82.009V31.7601H83.02V32.4737H82.009V33.5442H83.1984V34.2578H81.2359Z" fill="white"/>
<path d="M88.3721 34.2578V30.7491H87.8369L87.7774 32.7116C87.7774 33.6631 87.4801 34.2578 86.6475 34.2578H86.4096V33.5442C86.8854 33.5442 86.9449 33.0684 86.9449 32.7116L87.0043 30.0355H89.0858V34.2578H88.3721Z" fill="white"/>
<path d="M93.7841 34.2578H92.5947V30.0355H93.3678V31.5817H93.7841C94.4977 31.5817 94.914 31.9385 94.914 32.8306V33.009C94.914 33.901 94.4977 34.2578 93.7841 34.2578ZM94.1409 32.8306C94.1409 32.4143 94.022 32.2953 93.7246 32.2953H93.4273V33.5442H93.7246C94.022 33.5442 94.1409 33.3658 94.1409 32.9495V32.8306Z" fill="white"/>
<path d="M99.7903 34.2578V32.4737H99.0767V34.2578H98.3036V30.0355H99.0767V31.7601H99.7903V30.0355H100.563V34.2578H99.7903Z" fill="white"/>
<path d="M105.797 34.2578L105.678 33.6037H104.845L104.726 34.2578H103.953L104.905 30.0355H105.618L106.629 34.2578H105.797ZM105.321 31.879L105.262 31.4033L105.202 31.879C105.202 31.879 105.024 32.9495 104.964 32.9495H105.559L105.321 31.879Z" fill="white"/>
<path d="M111.447 34.2578V32.6522H111.209L110.674 34.2578H109.841L110.495 32.4737C110.138 32.3548 109.96 31.998 109.96 31.3438V31.2249C109.96 30.4518 110.317 30.0355 111.03 30.0355H112.22V34.2578H111.447ZM111.447 30.6896H111.09C110.792 30.6896 110.674 30.8681 110.674 31.2249V31.3438C110.674 31.7006 110.792 31.879 111.09 31.879H111.447V30.6896Z" fill="white"/>
<path d="M120.724 30.7491V34.2578H119.951V30.7491H119.237V30.0355H121.497V30.7491H120.724Z" fill="white"/>
<path d="M124.768 34.2578V30.0355H126.73V30.7491H125.541V31.7601H126.552V32.4737H125.541V33.5442H126.73V34.2578H124.768Z" fill="white"/>
<path d="M131.785 34.2578L131.369 33.1874L131.25 32.8306L131.131 33.1874L130.715 34.2578H129.942L130.834 32.0575L130.001 30.0355H130.834L131.19 30.987L131.309 31.2843L131.428 30.987L131.785 30.0355H132.618L131.785 32.0575L132.677 34.2578H131.785Z" fill="white"/>
<path d="M137.375 34.2578V32.4737H136.662V34.2578H135.889V30.0355H136.662V31.7601H137.375V30.0355H138.148V34.2578H137.375Z" fill="white"/>
<path d="M143.203 34.2578V32.2953C143.203 32.1763 143.263 31.8195 143.263 31.7006L142.371 34.1983H141.716V29.976H142.49V31.879C142.49 31.9979 142.49 32.4142 142.43 32.5332L143.322 30.0354H143.976V34.2578H143.203Z" fill="white"/>
<path d="M149.091 34.2578L148.437 32.5332L148.199 32.9495V34.2578H147.426V30.0355H148.199V31.7006L149.031 30.0355H149.864L149.031 31.6412L149.983 34.2578H149.091Z" fill="white"/>
<path d="M155.038 34.2578L154.919 33.6037H154.086L153.967 34.2578H153.135L154.086 30.0355H154.8L155.811 34.2578H155.038ZM154.503 31.879L154.443 31.4033L154.384 31.879C154.384 31.879 154.205 32.9495 154.146 32.9495H154.741L154.503 31.879Z" fill="white"/>
</svg>
