<svg width="24" height="25" viewBox="0 0 24 25" fill="none" xmlns="http://www.w3.org/2000/svg">
<rect y="0.772949" width="24" height="24" rx="12" fill="#666666"/>
<path d="M14.6362 12.1231H9.27406V10.0013H14.6362C14.9494 10.0013 15.1672 10.0559 15.2765 10.1512C15.3858 10.2465 15.4535 10.4234 15.4535 10.6817V11.4436C15.4535 11.7157 15.3858 11.8925 15.2765 11.9879C15.1672 12.0832 14.9494 12.124 14.6362 12.124V12.1231ZM15.0041 8.00081H7V17.075H9.27406V14.1228H13.4649L15.4535 17.075H18L15.8075 14.1089C16.6158 13.9892 16.9788 13.7415 17.2781 13.3332C17.5775 12.925 17.7276 12.2723 17.7276 11.4012V10.7208C17.7276 10.2042 17.6729 9.79593 17.5775 9.48303C17.482 9.17013 17.319 8.89797 17.0873 8.65351C16.8426 8.4221 16.5702 8.25912 16.2431 8.14993C15.916 8.0546 15.5073 8 15.0041 8V8.00081Z" fill="#343434"/>
</svg>
