<svg width="24" height="25" viewBox="0 0 24 25" fill="none" xmlns="http://www.w3.org/2000/svg">
<rect y="0.772949" width="24" height="24" rx="12" fill="#666666"/>
<path d="M15.7524 6.5004C13.4654 6.06367 11.0906 6.06367 8.80366 6.5004C7.79215 6.71877 6.51675 7.94161 6.29686 8.90242C5.90105 10.7804 5.90105 12.702 6.29686 14.5799C6.56073 15.5407 7.83613 16.7636 8.80366 16.9819C8.84764 16.9819 8.89162 17.0256 8.89162 17.0693V19.8207C8.89162 19.9517 9.06754 20.0391 9.1555 19.908L10.4749 18.5542C10.4749 18.5542 11.5304 17.4623 11.7063 17.2877C11.7063 17.2877 11.7503 17.244 11.7942 17.244C13.1136 17.2877 14.477 17.1566 15.7963 16.9383C16.8079 16.7199 18.0832 15.4971 18.3031 14.5362C18.699 12.6583 18.699 10.7367 18.3031 8.85875C18.0393 7.94161 16.7639 6.71877 15.7524 6.5004ZM15.7963 14.7109C15.5764 15.1477 15.3126 15.4971 14.8728 15.7154C14.7408 15.7591 14.6089 15.8028 14.477 15.8464C14.301 15.8028 14.1691 15.7591 14.0372 15.7154C12.6298 15.1477 11.3105 14.3616 10.255 13.2261C9.68325 12.571 9.19948 11.8285 8.80366 11.0424C8.62775 10.6493 8.45183 10.3 8.3199 9.9069C8.18796 9.55752 8.40785 9.20813 8.62775 8.94609C8.84764 8.68405 9.11152 8.50936 9.41937 8.37834C9.63927 8.24732 9.85916 8.33467 10.0351 8.50936C10.3869 8.94609 10.7387 9.38282 11.0026 9.86323C11.1785 10.1689 11.1346 10.5183 10.8267 10.7367C10.7387 10.7804 10.6948 10.824 10.6068 10.9114C10.5628 10.9551 10.4749 10.9987 10.4309 11.0861C10.3429 11.2171 10.3429 11.3481 10.3869 11.4791C10.7387 12.4836 11.3984 13.2697 12.4099 13.7065C12.5859 13.7938 12.7178 13.8375 12.9377 13.8375C13.2456 13.7938 13.3775 13.4444 13.5974 13.2697C13.8173 13.095 14.0812 13.095 14.345 13.2261C14.5649 13.3571 14.7848 13.5318 15.0487 13.7065C15.2686 13.8812 15.4885 14.0122 15.7084 14.1869C15.8403 14.2742 15.8843 14.4926 15.7963 14.7109ZM13.9492 11.4355C13.8613 11.4355 13.9052 11.4355 13.9492 11.4355C13.7733 11.4355 13.7293 11.3481 13.6853 11.2171C13.6853 11.1297 13.6853 10.9987 13.6414 10.9114C13.5974 10.7367 13.5094 10.562 13.3335 10.431C13.2456 10.3873 13.1576 10.3436 13.0696 10.3C12.9377 10.2563 12.8497 10.2563 12.7178 10.2563C12.5859 10.2126 12.5419 10.1253 12.5419 9.99425C12.5419 9.9069 12.6738 9.81956 12.7618 9.81956C13.4654 9.86323 13.9932 10.2563 14.0812 11.0861C14.0812 11.1297 14.0812 11.2171 14.0812 11.2608C14.0812 11.3481 14.0372 11.4355 13.9492 11.4355ZM13.5094 9.51384C13.2895 9.4265 13.0696 9.33915 12.8058 9.29548C12.7178 9.29548 12.5859 9.2518 12.4979 9.2518C12.366 9.2518 12.278 9.16446 12.322 9.03344C12.322 8.90242 12.4099 8.81507 12.5419 8.85875C12.9817 8.90242 13.3775 8.98977 13.7733 9.16446C14.5649 9.55752 15.0047 10.2126 15.1367 11.0861C15.1367 11.1297 15.1367 11.1734 15.1367 11.2171C15.1367 11.3044 15.1367 11.3918 15.1367 11.5228C15.1367 11.5665 15.1367 11.6102 15.1367 11.6538C15.0927 11.8285 14.7848 11.8722 14.7408 11.6538C14.7408 11.6102 14.6969 11.5228 14.6969 11.4791C14.6969 11.0861 14.6089 10.693 14.433 10.3436C14.1691 9.95057 13.8613 9.68854 13.5094 9.51384ZM15.8843 12.1342C15.7524 12.1342 15.6644 12.0032 15.6644 11.8722C15.6644 11.6102 15.6204 11.3481 15.5764 11.0861C15.4005 9.68853 14.2571 8.55303 12.8937 8.33467C12.6738 8.291 12.4539 8.291 12.278 8.24732C12.1461 8.24732 11.9702 8.24732 11.9262 8.07263C11.8822 7.94161 12.0141 7.81059 12.1461 7.81059C12.1901 7.81059 12.234 7.81059 12.234 7.81059C12.322 7.81059 14.0372 7.85427 12.234 7.81059C14.0812 7.85427 15.6204 9.07711 15.9283 10.9114C15.9723 11.2171 16.0162 11.5228 16.0162 11.8722C16.1042 12.0032 16.0162 12.1342 15.8843 12.1342Z" fill="#343434"/>
</svg>
