<svg width="24" height="25" viewBox="0 0 24 25" fill="none" xmlns="http://www.w3.org/2000/svg">
<rect y="0.772949" width="24" height="24" rx="12" fill="#666666"/>
<path d="M12.5899 16.9732C8.07997 16.9732 5.50757 13.8201 5.40039 8.57324H7.65948C7.73368 12.4243 9.39914 14.0555 10.7183 14.3919V8.57324H12.8455V11.8946C14.1482 11.7516 15.5168 10.2381 15.9785 8.57324H18.1057C17.9317 9.43669 17.5849 10.2542 17.087 10.9747C16.589 11.6953 15.9506 12.3032 15.2118 12.7606C16.0365 13.1786 16.765 13.7701 17.3491 14.4963C17.9332 15.2224 18.3597 16.0667 18.6004 16.9732H16.2589C16.0428 16.1858 15.6036 15.4809 14.9964 14.9469C14.3892 14.4129 13.641 14.0736 12.8455 13.9714V16.9732H12.5899Z" fill="#343434"/>
</svg>
