<svg width="24" height="25" viewBox="0 0 24 25" fill="none" xmlns="http://www.w3.org/2000/svg">
<rect y="0.772949" width="24" height="24" rx="12" fill="#666666"/>
<path d="M16.7561 8.01035C15.5707 6.8291 13.9902 6.17285 12.322 6.17285C8.85366 6.17285 6.0439 8.97285 6.0439 12.4291C6.0439 13.5229 6.35122 14.6166 6.87805 15.5354L6 18.7729L9.33659 17.8979C10.2585 18.3791 11.2683 18.6416 12.322 18.6416C15.7902 18.6416 18.6 15.8416 18.6 12.3854C18.5561 10.7666 17.9415 9.1916 16.7561 8.01035ZM15.3512 14.6604C15.2195 15.0104 14.6049 15.3604 14.2976 15.4041C14.0341 15.4479 13.6829 15.4479 13.3317 15.3604C13.1122 15.2729 12.8049 15.1854 12.4537 15.0104C10.8732 14.3541 9.86342 12.7791 9.77561 12.6479C9.68781 12.5604 9.11707 11.8166 9.11707 11.0291C9.11707 10.2416 9.5122 9.8916 9.6439 9.7166C9.77561 9.5416 9.95122 9.5416 10.0829 9.5416C10.1707 9.5416 10.3024 9.5416 10.3902 9.5416C10.478 9.5416 10.6098 9.49785 10.7415 9.8041C10.8732 10.1104 11.1805 10.8979 11.2244 10.9416C11.2683 11.0291 11.2683 11.1166 11.2244 11.2041C11.1805 11.2916 11.1366 11.3791 11.0488 11.4666C10.961 11.5541 10.8732 11.6854 10.8293 11.7291C10.7415 11.8166 10.6537 11.9041 10.7415 12.0354C10.8293 12.2104 11.1366 12.6916 11.6195 13.1291C12.2341 13.6541 12.7171 13.8291 12.8927 13.9166C13.0683 14.0041 13.1561 13.9604 13.2439 13.8729C13.3317 13.7854 13.639 13.4354 13.7268 13.2604C13.8146 13.0854 13.9463 13.1291 14.078 13.1729C14.2098 13.2166 15 13.6104 15.1317 13.6979C15.3073 13.7854 15.3951 13.8291 15.439 13.8729C15.4829 14.0041 15.4829 14.3104 15.3512 14.6604Z" fill="#343434"/>
</svg>
